<svg xmlns="http://www.w3.org/2000/svg" viewBox="0 0 430 126" role="img" aria-label="Klee Clover Adventure — 可莉 · 四叶草冒险">
  <g transform="translate(8 18)" fill="#c94f38" stroke="#fff1d6" stroke-width="2"><path d="M40 37C-4 33 6 4 23 5c12 0 17 12 17 17C40 6 66-5 75 12c9 20-15 26-35 25Zm0 3c43-4 45 28 24 30-14 1-23-9-24-16-3 10-19 24-30 10-14-17 4-29 30-24Z"/><path d="M39 39q3 34 29 51" fill="none" stroke="#bb8648" stroke-width="4"/></g>
  <text x="103" y="62" font-family="Georgia,serif" font-weight="bold" font-size="55" letter-spacing="4" fill="#c94f38" stroke="#fff1d6" stroke-width="1.4" paint-order="stroke">KLEE</text>
  <text x="105" y="85" font-family="Arial,sans-serif" font-size="13" font-weight="bold" letter-spacing="5" fill="#bc894d">CLOVER ADVENTURE</text>
  <text x="106" y="109" font-family="Microsoft YaHei,sans-serif" font-size="12" letter-spacing="4" fill="#ba7450">可莉 · 四叶草冒险</text>
</svg>
